<svg width="405" height="208" viewBox="0 0 405 208" fill="none" xmlns="http://www.w3.org/2000/svg">
<g clip-path="url(#clip0_10_513)">
<path d="M294.54 128.58C294.285 128.592 294.033 128.525 293.817 128.389C293.601 128.252 293.432 128.053 293.334 127.817C293.235 127.582 293.211 127.322 293.266 127.072C293.32 126.823 293.45 126.596 293.637 126.423L293.723 126.084C293.712 126.057 293.7 126.03 293.689 126.003C293.432 125.396 293.001 124.879 292.451 124.516C291.9 124.153 291.255 123.961 290.596 123.963C289.936 123.966 289.292 124.163 288.745 124.53C288.197 124.897 287.77 125.417 287.518 126.026C286.508 128.454 285.223 130.887 284.907 133.455C284.768 134.59 284.826 135.741 285.081 136.856C282.71 131.689 281.479 126.074 281.471 120.391C281.471 118.965 281.55 117.539 281.709 116.122C281.84 114.96 282.022 113.807 282.255 112.661C283.525 106.447 286.253 100.622 290.215 95.6649C292.132 94.6197 293.683 93.0125 294.658 91.0598C295.011 90.3579 295.26 89.6086 295.399 88.8352C295.182 88.8635 294.583 85.5726 294.746 85.3707C294.445 84.9138 293.905 84.6866 293.576 84.2407C291.939 82.0231 289.683 82.4103 288.506 85.4239C285.99 86.6923 285.966 88.7958 287.509 90.8189C288.491 92.106 288.626 93.8476 289.488 95.2256C289.399 95.339 289.307 95.4488 289.218 95.5622C287.598 97.6438 286.186 99.8791 285.002 102.236C285.29 99.5956 284.946 96.9246 283.999 94.4428C283.04 92.1298 281.241 90.1818 279.657 88.1822C277.754 85.7804 273.852 86.8286 273.517 89.8733C273.514 89.9027 273.511 89.9322 273.507 89.9617C273.743 90.0943 273.973 90.235 274.198 90.3839C274.482 90.5729 274.701 90.8429 274.828 91.1585C274.955 91.4742 274.983 91.8208 274.91 92.1529C274.836 92.485 274.664 92.7871 274.415 93.0197C274.167 93.2522 273.854 93.4044 273.517 93.4562L273.483 93.4615C273.567 94.3087 273.715 95.1483 273.926 95.9731C271.894 103.825 276.281 106.684 282.545 106.813C282.684 106.884 282.819 106.954 282.957 107.022C281.767 110.39 281.021 113.898 280.737 117.458C280.576 119.558 280.586 121.668 280.766 123.767L280.755 123.692C280.301 121.358 279.055 119.253 277.227 117.73C274.512 115.502 270.676 114.682 267.747 112.891C267.436 112.691 267.074 112.584 266.704 112.584C266.334 112.583 265.972 112.687 265.659 112.886C265.347 113.084 265.098 113.367 264.942 113.702C264.785 114.037 264.728 114.409 264.777 114.776C264.781 114.802 264.785 114.828 264.789 114.854C265.225 115.032 265.65 115.236 266.062 115.467C266.297 115.599 266.527 115.74 266.752 115.889C267.036 116.078 267.255 116.348 267.382 116.664C267.509 116.979 267.537 117.326 267.464 117.658C267.39 117.99 267.218 118.292 266.969 118.525C266.721 118.757 266.408 118.909 266.071 118.961L266.037 118.967C266.012 118.97 265.991 118.974 265.966 118.977C266.712 120.757 267.759 122.395 269.061 123.82C270.332 130.674 275.789 131.324 281.627 129.328H281.631C282.271 132.109 283.199 134.816 284.4 137.405H294.292C294.328 137.295 294.36 137.182 294.392 137.072C293.476 137.129 292.557 137.074 291.654 136.909C292.388 136.009 293.122 135.102 293.856 134.202C293.873 134.186 293.888 134.168 293.902 134.149C294.275 133.689 294.651 133.232 295.023 132.771L295.023 132.771C295.043 131.359 294.881 129.951 294.541 128.581L294.54 128.58Z" fill="#F2F2F2"/>
<path d="M324.167 154.191H247.066C241.814 154.191 236.777 156.275 233.063 159.986C229.349 163.696 227.263 168.728 227.263 173.975V206.948H233.475V188.754C233.475 183.507 235.562 178.474 239.276 174.764C242.989 171.054 248.026 168.969 253.278 168.969H317.954C323.206 168.969 328.243 171.054 331.957 174.764C335.671 178.474 337.757 183.507 337.757 188.754V206.948H343.97V173.975C343.97 168.728 341.883 163.696 338.17 159.986C334.456 156.275 329.419 154.191 324.167 154.191Z" fill="#F2F2F2"/>
<path d="M286.06 162.614C297.211 162.614 306.251 161.324 306.251 159.733C306.251 158.141 297.211 156.851 286.06 156.851C274.909 156.851 265.869 158.141 265.869 159.733C265.869 161.324 274.909 162.614 286.06 162.614Z" fill="#E6E6E6"/>
<path d="M301.324 160.455H274.43C267.792 154.098 263.045 147.972 266.845 142.887C266.845 141.426 267.426 140.024 268.461 138.99C269.495 137.957 270.899 137.376 272.362 137.376H303.392C304.855 137.376 306.259 137.957 307.293 138.99C308.328 140.024 308.909 141.426 308.909 142.887C310.356 148.681 307.771 154.538 301.324 160.455Z" fill="#F2F2F2"/>
<path d="M212.156 65.4943C180.069 47.3086 192.347 0.479296 157.099 15.3974C111.33 4.50798 137.345 49.9924 96.7171 65.4943C94.8565 65.4943 93.0141 65.8605 91.2951 66.5718C89.5761 67.2832 88.0142 68.3258 86.6985 69.6403C85.3829 70.9547 84.3392 72.5151 83.6272 74.2325C82.9152 75.9499 82.5487 77.7906 82.5487 79.6494V79.6495C82.5487 81.5502 82.9319 83.4315 83.6754 85.1811C84.4188 86.9307 85.5074 88.5128 86.8762 89.833C88.2449 91.1532 89.8658 92.1845 91.6421 92.8653C93.4184 93.5462 95.3137 93.8626 97.2151 93.7958L102.518 93.6095V138.201H206.356V93.6095L211.658 93.7959C213.56 93.8627 215.455 93.5462 217.231 92.8654C219.008 92.1845 220.628 91.1533 221.997 89.833C223.366 88.5128 224.454 86.9307 225.198 85.1811C225.941 83.4315 226.325 81.5502 226.325 79.6495V79.6494C226.325 77.7906 225.958 75.9499 225.246 74.2325C224.534 72.5151 223.49 70.9547 222.175 69.6403C220.859 68.3258 219.297 67.2832 217.578 66.5718C215.859 65.8605 214.017 65.4943 212.156 65.4943Z" fill="#E6E6E6"/>
<path d="M202.25 159.038H105.292C104.203 159.038 103.159 159.47 102.389 160.239C101.619 161.009 101.186 162.052 101.186 163.14V169.123C101.186 170.211 101.619 171.254 102.389 172.023C103.159 172.793 104.203 173.225 105.292 173.225H112.724V207.805H118.049V173.225H187.274V207.805H192.599V173.225H202.25C203.339 173.225 204.383 172.793 205.153 172.023C205.923 171.254 206.356 170.211 206.356 169.123V163.14C206.356 162.052 205.923 161.009 205.153 160.239C204.383 159.47 203.339 159.038 202.25 159.038Z" fill="#E6E6E6"/>
<path d="M222.219 149.285H219.247C220.106 147.803 220.558 146.121 220.556 144.408V87.6611C220.556 85.0743 219.527 82.5935 217.696 80.7644C215.866 78.9353 213.382 77.9077 210.793 77.9077C208.204 77.9077 205.721 78.9353 203.89 80.7644C202.059 82.5935 201.031 85.0743 201.031 87.6611V134.564C127.947 124.308 175.575 124.412 109.618 134.89V87.6611C109.618 85.0743 108.589 82.5935 106.758 80.7644C104.927 78.9353 102.444 77.9077 99.855 77.9077C97.2659 77.9077 94.7827 78.9353 92.9519 80.7644C91.121 82.5935 90.0925 85.0743 90.0925 87.6611V144.408C90.0906 146.121 90.5423 147.803 91.4018 149.285H85.323C84.2341 149.285 83.1899 149.717 82.4199 150.486C81.65 151.255 81.2174 152.299 81.2174 153.387V159.37C81.2174 160.458 81.65 161.501 82.4199 162.27C83.1899 163.039 84.2341 163.472 85.323 163.472H222.219C223.308 163.472 224.352 163.039 225.122 162.27C225.892 161.501 226.325 160.458 226.325 159.37V153.387C226.325 152.299 225.892 151.255 225.122 150.486C224.352 149.717 223.308 149.285 222.219 149.285Z" fill="#F2F2F2"/>
<path d="M84.3451 91.3297C86.0697 91.4869 87.7876 90.9655 89.1332 89.8766C90.4789 88.7876 91.3462 87.2171 91.5505 85.4991C91.5865 85.1492 91.5935 84.797 91.5713 84.446L132.224 64.3518L122.348 52.5618L84.2038 78.5473C82.7541 78.7518 81.4128 79.43 80.3894 80.476C79.366 81.5221 78.718 82.8772 78.5466 84.3299C78.3656 86.0012 78.8565 87.6759 79.9115 88.9855C80.9664 90.2952 82.4988 91.1325 84.1717 91.3133C84.2294 91.3196 84.2872 91.3251 84.3451 91.3297Z" fill="#FFB6B6"/>
<path d="M173.675 54.8636C173.675 54.8636 177.623 47.0377 165.296 44.198C152.969 41.3583 130.211 50.9205 129.053 52.0128C127.895 53.105 129.399 51.6214 125.737 51.0526C123.978 50.7795 120.468 47.8071 119.747 50.3083C119.027 52.8094 119.226 55.8132 117.117 53.3817C115.007 50.9502 123.319 74.1712 123.319 74.1712C123.319 74.1712 124.392 73.9991 128.194 71.9851C130.329 70.854 130.352 66.1573 131.78 67.4711C133.209 68.785 145.912 68.5618 146.626 68.3886C147.34 68.2155 150.54 62.3279 150.54 62.3279L173.675 54.8636Z" fill="#2F2E41"/>
<path d="M107.615 200.495L100.847 199.085L103.067 172.334L113.056 174.415L107.615 200.495Z" fill="#FFB6B6"/>
<path d="M106.382 207.598L85.5698 203.264L85.6246 203.001C86.0725 200.855 87.3553 198.974 89.191 197.773C91.0267 196.571 93.265 196.148 95.4134 196.595L95.4139 196.595L99.8165 194.505L106.308 198.863L108.125 199.242L106.382 207.598Z" fill="#2F2E41"/>
<path d="M224.142 169.489L230.878 167.935L228.082 141.238L218.141 143.532L224.142 169.489Z" fill="#FFB6B6"/>
<path d="M225.527 176.564L246.242 171.785L246.181 171.523C245.687 169.387 244.364 167.534 242.503 166.372C240.642 165.211 238.395 164.835 236.257 165.328L236.256 165.328L231.81 163.333L225.413 167.83L223.605 168.248L225.527 176.564Z" fill="#2F2E41"/>
<path d="M144.674 108.055L143.513 121.185C143.513 121.185 105.785 109.08 105.326 137.554C105.18 146.625 101.186 181.648 101.186 181.648L112.724 183.422C112.724 183.422 118.936 174.112 118.936 171.008C118.936 167.905 125.149 145.295 125.149 145.295L157.528 142.113C191.712 139.975 202.362 139.088 209.906 114.705C209.906 114.705 214.505 147.328 217.087 149.858C219.668 152.388 221.579 149.873 218.405 153.126C215.231 156.378 213.012 155.048 215.231 156.378C217.45 157.708 230.762 155.491 230.762 155.491C233.735 155.825 229.923 108.288 219.959 94.2588C211.068 81.7402 180.392 121.079 180.392 121.079L144.674 108.055Z" fill="#2F2E41"/>
<path d="M184.649 52.2022C184.649 52.2022 196.181 50.8946 198.637 56.4159C201.094 61.9373 207.284 73.4341 207.284 73.4341C207.284 73.4341 204.109 74.7851 207.351 71.2752C208.804 69.7023 206.123 70.6617 207.965 70.0482C209.807 69.4348 210.421 70.0482 210.421 70.0482L216.562 80.4775C216.562 80.4775 216.068 82.8541 212.878 82.9314C209.687 83.0087 214.72 79.864 210.421 84.1584C208.202 86.3758 200.143 89.4345 200.143 89.4345L179.543 70.5209L184.649 52.2022Z" fill="#2F2E41"/>
<path d="M148.284 46.6001L159.94 43.5827L165.38 36.0859L178.301 37.6728L181.051 47.8985L190.25 53.2328C190.25 53.2328 185.166 106.957 186.375 109.907C187.584 112.857 184.65 115.324 180.946 119.127C177.243 122.93 184.023 118.687 184.883 122.827C185.742 126.967 192.006 131.348 184.883 131.305C177.759 131.261 138.576 133.237 139.804 128.329C141.032 123.421 137.212 122.078 139.064 119.001C140.916 115.924 142.162 117.643 141.539 113.103C140.916 108.562 141.53 105.495 141.53 103.041C141.53 100.587 143.587 78.2875 143.587 78.2875L148.284 46.6001Z" fill="#46287B"/>
<path d="M190.157 131.397C192.38 135.36 179.86 136.525 166.295 135.992C166.033 134.988 165.598 134.037 165.012 133.182C163.513 131.01 165.325 116.317 163.139 114.833C164.127 117.225 160.13 133.127 159.295 135.574C147.026 134.593 135.844 132.366 135.979 129.716C136.015 128.943 138.576 114.219 139.817 113.103C141.051 111.986 139.804 90.9066 139.817 86.3852C139.823 81.8577 146.559 48.5761 146.559 47.3491C146.559 46.1222 162.525 39.9873 162.525 39.9873L169.279 78.6369L179.546 42.294C180.55 43.6577 181.711 44.8992 183.004 45.9933C185.061 47.7049 193.228 54.711 193.228 54.711L186.234 106.415C186.234 106.415 189.543 114.219 189.371 117.317C189.305 119.775 188.821 122.205 187.941 124.501C186.946 127.415 187.05 125.851 190.157 131.397Z" fill="#2F2E41"/>
<path d="M201.144 24.5602C202.423 25.7259 203.197 27.3445 203.3 29.0715C203.403 30.7985 202.828 32.4976 201.696 33.8073C201.462 34.0699 201.207 34.3127 200.932 34.5332L213.511 78.0691L198.138 78.7398L191.604 33.0793C190.777 31.8722 190.373 30.4256 190.456 28.9652C190.538 27.5047 191.102 26.1126 192.06 25.0062C192.611 24.3818 193.28 23.8719 194.028 23.5057C194.776 23.1395 195.589 22.9242 196.42 22.8719C197.252 22.8196 198.086 22.9315 198.874 23.2011C199.662 23.4707 200.389 23.8928 201.014 24.4432C201.058 24.4816 201.101 24.5206 201.144 24.5602Z" fill="#FFB6B6"/>
<path d="M195.716 75.0253C196.207 74.6347 211.507 69.6721 211.507 69.6721C211.507 69.6721 218.005 79.3302 214.078 82.4555C210.151 85.5808 201.574 86.3956 201.574 86.3956C201.574 86.3956 197.97 84.3698 198.054 81.9822C198.139 79.5946 195.716 75.0253 195.716 75.0253Z" fill="#2F2E41"/>
<path d="M186.25 30.2748L187.913 18.0386C188.143 16.3419 189.304 15.2278 190.499 15.5551L193.472 16.3692C194.667 16.6965 195.452 18.3433 195.222 20.04L193.559 32.2762C193.328 33.9729 192.168 35.0871 190.972 34.7597L187.999 33.9457C186.804 33.6183 186.019 31.9716 186.25 30.2748Z" fill="#3F3D56"/>
<path d="M187.074 29.5642L188.769 18.3711C189.004 16.8191 189.849 15.834 190.654 16.1752L192.655 17.024C193.459 17.3653 193.923 18.9057 193.688 20.4578L191.993 31.6508C191.758 33.2029 190.912 34.188 190.107 33.8468L188.106 32.998C187.302 32.6567 186.839 31.1163 187.074 29.5642Z" fill="#46287B"/>
<path d="M155.451 17.9382C156.607 27.2558 163.069 34.9383 172.467 34.9383C174.701 34.9383 176.914 34.4985 178.978 33.6442C181.043 32.7899 182.919 31.5377 184.499 29.9591C186.079 28.3805 187.332 26.5064 188.187 24.4439C189.043 22.3813 189.483 20.1707 189.483 17.9382C189.483 8.54937 181.824 1.80625 172.467 0.938207C162.538 0.0171594 153.967 5.97565 155.451 17.9382Z" fill="#2F2E41"/>
<path d="M174.348 35.9477C182.681 35.9477 189.437 29.1984 189.437 20.8727C189.437 12.5471 182.681 5.79785 174.348 5.79785C166.014 5.79785 159.259 12.5471 159.259 20.8727C159.259 29.1984 166.014 35.9477 174.348 35.9477Z" fill="#FFB6B6"/>
<path d="M158.723 22.5151C159.201 25.7909 161.995 30.3613 161.341 30.3613C160.686 30.3613 156.033 16.8572 160.686 15.9766C164.062 15.3379 164.816 15.8982 167.971 14.5316L167.526 14.9501C169.613 16.467 172.519 15.532 174.901 14.5447C177.29 13.5639 180.189 12.6289 182.284 14.1393C183.599 15.0874 184.155 16.7351 184.973 18.1343C185.792 19.5401 187.303 20.8674 188.861 20.4359C190.111 20.0893 190.831 18.6901 190.824 17.3955C190.818 16.1009 189.13 14.8693 189.699 13.7078C191.383 10.2656 189.868 7.91942 186.197 6.29971C184.862 6.09702 183.527 5.88997 182.192 5.67855C182.892 4.71043 183.74 3.85868 184.705 3.15471C184.208 2.14122 183.638 1.12121 182.676 0.558911C181.61 -0.0752987 180.288 -0.0295598 179.051 0.0358455C176.289 0.179673 173.529 0.32351 170.772 0.467363C168.73 0.571991 166.616 0.696233 164.79 1.63123C162.512 2.8016 161.02 5.08352 159.934 7.40471C157.499 12.6224 157.885 16.8201 158.723 22.5151Z" fill="#2F2E41"/>
<path d="M2.33736e-06 207.472C-0.000204485 207.542 0.0133163 207.61 0.0397827 207.675C0.0662492 207.739 0.105142 207.797 0.154222 207.846C0.203302 207.895 0.261597 207.934 0.325761 207.96C0.389926 207.987 0.458696 208 0.528103 208H404.472C404.612 208 404.746 207.944 404.845 207.845C404.944 207.746 405 207.612 405 207.472C405 207.332 404.944 207.198 404.845 207.099C404.746 207 404.612 206.945 404.472 206.945H0.528103C0.458697 206.945 0.389932 206.958 0.325768 206.985C0.261604 207.011 0.203301 207.05 0.154222 207.099C0.105142 207.148 0.0662499 207.206 0.0397827 207.27C0.0133156 207.334 -0.000202718 207.403 2.33736e-06 207.472Z" fill="#CCCCCC"/>
</g>
<defs>
<clipPath id="clip0_10_513">
<rect width="405" height="208" fill="white"/>
</clipPath>
</defs>
</svg>
