<svg width="868" height="378" viewBox="0 0 868 378" fill="none" xmlns="http://www.w3.org/2000/svg">
<g clip-path="url(#clip0_2_446)">
<path d="M782.962 155.936H273.701C271.539 155.936 269.465 156.799 267.936 158.333C266.407 159.868 265.548 161.95 265.548 164.121C265.548 166.292 266.407 168.373 267.936 169.908C269.465 171.443 271.539 172.306 273.701 172.306H288.126V368.11C288.126 370.28 288.985 372.362 290.514 373.897C292.043 375.432 294.117 376.294 296.279 376.294C298.442 376.294 300.516 375.432 302.045 373.897C303.574 372.362 304.433 370.28 304.433 368.11L304.557 172.306H713.289L750.976 368.11C750.976 370.28 751.835 372.362 753.364 373.897C754.893 375.432 756.967 376.294 759.129 376.294C761.292 376.294 763.365 375.432 764.894 373.897C766.423 372.362 767.282 370.28 767.282 368.11L769.654 172.306H782.962C785.124 172.306 787.198 171.443 788.727 169.908C790.256 168.373 791.115 166.292 791.115 164.121C791.115 161.95 790.256 159.868 788.727 158.333C787.198 156.799 785.124 155.936 782.962 155.936Z" fill="#CCCCCC"/>
<path d="M361.975 119.466V154.126H275.473C273.206 154.205 270.946 153.836 268.821 153.038C266.696 152.24 264.749 151.03 263.09 149.477C261.431 147.923 260.094 146.057 259.153 143.985C258.213 141.913 257.688 139.675 257.609 137.399C257.53 135.123 257.899 132.854 258.694 130.721C259.488 128.588 260.694 126.634 262.241 124.968C263.788 123.303 265.647 121.96 267.711 121.016C269.776 120.072 272.005 119.545 274.272 119.466C274.672 119.452 275.073 119.452 275.473 119.466L361.975 119.466Z" fill="#46287B"/>
<path d="M364.1 153.86C364.1 154.213 363.96 154.552 363.711 154.802C363.462 155.052 363.124 155.193 362.772 155.193H273.932C269.11 155.189 264.485 153.264 261.076 149.839C257.667 146.414 255.752 141.771 255.752 136.929C255.752 132.088 257.667 127.445 261.076 124.02C264.485 120.595 269.11 118.67 273.932 118.666H362.772C362.946 118.666 363.119 118.7 363.281 118.767C363.443 118.834 363.589 118.932 363.713 119.055C363.837 119.179 363.935 119.326 364.002 119.488C364.069 119.65 364.103 119.824 364.103 119.999C364.103 120.175 364.069 120.348 364.002 120.51C363.935 120.672 363.837 120.819 363.713 120.943C363.589 121.067 363.443 121.165 363.281 121.232C363.119 121.299 362.946 121.333 362.772 121.332H273.932C269.816 121.339 265.87 122.985 262.961 125.909C260.053 128.833 258.419 132.797 258.419 136.929C258.419 141.062 260.053 145.026 262.961 147.95C265.87 150.874 269.816 152.52 273.932 152.527H362.772C363.124 152.527 363.462 152.667 363.711 152.917C363.96 153.167 364.1 153.506 364.1 153.86Z" fill="#46287B"/>
<path d="M361.975 127.465H269.019C268.949 127.465 268.881 127.437 268.831 127.388C268.781 127.338 268.753 127.271 268.752 127.2C268.751 127.13 268.779 127.062 268.828 127.012C268.877 126.961 268.944 126.932 269.014 126.931H361.975C362.045 126.932 362.112 126.961 362.161 127.01C362.21 127.06 362.238 127.128 362.238 127.198C362.238 127.268 362.21 127.336 362.161 127.386C362.112 127.436 362.045 127.464 361.975 127.465Z" fill="#CCCCCC"/>
<path d="M361.975 133.863H269.019C268.949 133.864 268.881 133.836 268.831 133.787C268.781 133.737 268.753 133.67 268.752 133.599C268.751 133.529 268.779 133.461 268.828 133.41C268.877 133.36 268.944 133.331 269.014 133.33H361.975C362.045 133.331 362.112 133.359 362.161 133.409C362.21 133.459 362.238 133.527 362.238 133.597C362.238 133.667 362.21 133.735 362.161 133.784C362.112 133.834 362.045 133.863 361.975 133.863Z" fill="#CCCCCC"/>
<path d="M361.975 140.262H269.019C268.949 140.263 268.881 140.235 268.831 140.186C268.781 140.136 268.753 140.069 268.752 139.998C268.751 139.928 268.779 139.86 268.828 139.809C268.877 139.759 268.944 139.73 269.014 139.729H361.975C362.045 139.73 362.112 139.758 362.161 139.808C362.21 139.858 362.238 139.925 362.238 139.996C362.238 140.066 362.21 140.133 362.161 140.183C362.112 140.233 362.045 140.262 361.975 140.262Z" fill="#CCCCCC"/>
<path d="M361.975 146.661H269.019C268.949 146.661 268.881 146.634 268.831 146.584C268.781 146.535 268.753 146.467 268.752 146.397C268.751 146.326 268.779 146.258 268.828 146.208C268.877 146.157 268.944 146.129 269.014 146.128H361.975C362.045 146.128 362.112 146.157 362.161 146.207C362.21 146.257 362.238 146.324 362.238 146.394C362.238 146.465 362.21 146.532 362.161 146.582C362.112 146.632 362.045 146.66 361.975 146.661Z" fill="#CCCCCC"/>
<path d="M345.668 82.9496V117.61H259.167C254.588 117.77 250.134 116.097 246.784 112.96C243.434 109.823 241.462 105.479 241.303 100.883C241.144 96.2864 242.81 91.8149 245.935 88.4518C249.059 85.0887 253.387 83.1095 257.966 82.9496C258.366 82.9357 258.766 82.9357 259.167 82.9496H345.668Z" fill="#46287B"/>
<path d="M347.793 117.343C347.793 117.697 347.653 118.036 347.404 118.286C347.155 118.536 346.818 118.676 346.465 118.676H257.626C252.801 118.676 248.174 116.752 244.762 113.327C241.35 109.902 239.433 105.257 239.433 100.413C239.433 95.5693 241.35 90.924 244.762 87.499C248.174 84.074 252.801 82.1498 257.626 82.1498H346.465C346.64 82.1498 346.812 82.1843 346.974 82.2513C347.135 82.3183 347.281 82.4165 347.404 82.5403C347.528 82.664 347.626 82.811 347.692 82.9727C347.759 83.1345 347.793 83.3078 347.793 83.4829C347.793 83.658 347.759 83.8313 347.692 83.993C347.626 84.1548 347.528 84.3017 347.404 84.4255C347.281 84.5493 347.135 84.6475 346.974 84.7145C346.812 84.7815 346.64 84.816 346.465 84.816H257.626C253.505 84.816 249.554 86.4592 246.64 89.3843C243.726 92.3093 242.089 96.2764 242.089 100.413C242.089 104.55 243.726 108.517 246.64 111.442C249.554 114.367 253.505 116.01 257.626 116.01H346.465C346.818 116.01 347.155 116.151 347.404 116.401C347.653 116.651 347.793 116.99 347.793 117.343Z" fill="#3F3D56"/>
<path d="M345.669 90.9481H252.713C252.642 90.9485 252.575 90.9209 252.525 90.8714C252.475 90.8219 252.446 90.7545 252.446 90.684C252.445 90.6134 252.472 90.5455 252.521 90.4951C252.57 90.4447 252.637 90.4158 252.708 90.4149H345.669C345.738 90.4156 345.805 90.444 345.855 90.4939C345.904 90.5438 345.931 90.6112 345.931 90.6815C345.931 90.7517 345.904 90.8192 345.855 90.8691C345.805 90.919 345.738 90.9474 345.669 90.9481Z" fill="#CCCCCC"/>
<path d="M345.669 97.3469H252.713C252.642 97.3473 252.575 97.3197 252.525 97.2702C252.475 97.2207 252.446 97.1533 252.446 97.0828C252.445 97.0122 252.472 96.9443 252.521 96.8939C252.57 96.8435 252.637 96.8146 252.708 96.8137H345.669C345.738 96.8144 345.805 96.8428 345.855 96.8927C345.904 96.9427 345.931 97.0101 345.931 97.0803C345.931 97.1506 345.904 97.218 345.855 97.2679C345.805 97.3178 345.738 97.3462 345.669 97.3469Z" fill="#CCCCCC"/>
<path d="M345.669 103.746H252.713C252.642 103.746 252.575 103.719 252.525 103.669C252.475 103.619 252.446 103.552 252.446 103.482C252.445 103.411 252.472 103.343 252.521 103.293C252.57 103.242 252.637 103.213 252.708 103.213H345.669C345.738 103.213 345.805 103.242 345.855 103.292C345.904 103.341 345.931 103.409 345.931 103.479C345.931 103.549 345.904 103.617 345.855 103.667C345.805 103.717 345.738 103.745 345.669 103.746Z" fill="#CCCCCC"/>
<path d="M345.669 110.144H252.713C252.642 110.145 252.575 110.117 252.525 110.068C252.475 110.018 252.446 109.951 252.446 109.88C252.445 109.81 252.472 109.742 252.521 109.691C252.57 109.641 252.637 109.612 252.708 109.611H345.669C345.738 109.612 345.805 109.64 345.855 109.69C345.904 109.74 345.931 109.808 345.931 109.878C345.931 109.948 345.904 110.016 345.855 110.065C345.805 110.115 345.738 110.144 345.669 110.144Z" fill="#CCCCCC"/>
<path d="M446.296 278.584V248.363C446.296 247.027 445.768 245.746 444.827 244.801C443.886 243.857 442.61 243.326 441.279 243.326H327.135C325.804 243.326 324.528 243.857 323.587 244.801C322.646 245.746 322.117 247.027 322.117 248.363V278.584H446.296Z" fill="#CCCCCC"/>
<path d="M446.296 289.916H322.117V328.951H446.296V289.916Z" fill="#CCCCCC"/>
<path d="M322.117 340.284V370.504C322.117 371.84 322.646 373.121 323.587 374.066C324.528 375.01 325.804 375.541 327.135 375.541H441.279C442.61 375.541 443.886 375.01 444.827 374.066C445.768 373.121 446.296 371.84 446.296 370.504V340.284H322.117Z" fill="#CCCCCC"/>
<path d="M383.58 265.992C385.658 265.992 387.343 264.3 387.343 262.214C387.343 260.128 385.658 258.436 383.58 258.436C381.501 258.436 379.817 260.128 379.817 262.214C379.817 264.3 381.501 265.992 383.58 265.992Z" fill="white"/>
<path d="M383.58 316.359C385.658 316.359 387.343 314.668 387.343 312.582C387.343 310.495 385.658 308.804 383.58 308.804C381.501 308.804 379.817 310.495 379.817 312.582C379.817 314.668 381.501 316.359 383.58 316.359Z" fill="white"/>
<path d="M383.781 365.66C385.86 365.66 387.544 363.969 387.544 361.883C387.544 359.796 385.86 358.105 383.781 358.105C381.703 358.105 380.018 359.796 380.018 361.883C380.018 363.969 381.703 365.66 383.781 365.66Z" fill="white"/>
<path d="M432.218 208.869V243.529H345.716C341.139 243.685 336.688 242.012 333.341 238.875C329.993 235.738 328.023 231.396 327.864 226.802C327.704 222.208 329.369 217.738 332.491 214.375C335.613 211.013 339.937 209.032 344.514 208.869C344.914 208.855 345.315 208.855 345.716 208.869H432.218Z" fill="#46287B"/>
<path d="M434.342 243.262C434.342 243.616 434.202 243.955 433.953 244.205C433.704 244.455 433.367 244.595 433.015 244.595H344.175C339.351 244.596 334.724 242.674 331.312 239.252C327.899 235.829 325.981 231.186 325.978 226.343C325.975 221.5 327.888 216.855 331.296 213.428C334.705 210.001 339.329 208.073 344.153 208.069H433.015C433.189 208.068 433.362 208.102 433.524 208.169C433.685 208.236 433.832 208.334 433.956 208.458C434.079 208.582 434.178 208.729 434.245 208.891C434.311 209.053 434.346 209.226 434.346 209.402C434.346 209.577 434.311 209.751 434.245 209.913C434.178 210.075 434.079 210.222 433.956 210.346C433.832 210.47 433.685 210.568 433.524 210.634C433.362 210.701 433.189 210.735 433.015 210.735H344.175C340.058 210.74 336.111 212.386 333.202 215.31C330.293 218.235 328.659 222.199 328.659 226.332C328.659 230.465 330.293 234.429 333.202 237.354C336.111 240.278 340.058 241.924 344.175 241.929H433.015C433.367 241.929 433.704 242.07 433.953 242.32C434.202 242.57 434.342 242.909 434.342 243.262Z" fill="#3F3D56"/>
<path d="M432.218 216.867H339.262C339.192 216.867 339.124 216.84 339.074 216.79C339.024 216.741 338.995 216.673 338.995 216.603C338.994 216.532 339.021 216.464 339.07 216.414C339.12 216.364 339.187 216.335 339.257 216.334H432.218C432.288 216.335 432.355 216.363 432.404 216.413C432.453 216.463 432.481 216.53 432.481 216.6C432.481 216.671 432.453 216.738 432.404 216.788C432.355 216.838 432.288 216.866 432.218 216.867H432.218Z" fill="#CCCCCC"/>
<path d="M432.218 223.266H339.262C339.192 223.266 339.124 223.239 339.074 223.189C339.024 223.14 338.995 223.072 338.995 223.002C338.994 222.931 339.021 222.863 339.07 222.813C339.12 222.763 339.187 222.734 339.257 222.733H432.218C432.288 222.733 432.355 222.762 432.404 222.812C432.453 222.862 432.481 222.929 432.481 222.999C432.481 223.07 432.453 223.137 432.404 223.187C432.355 223.237 432.288 223.265 432.218 223.266H432.218Z" fill="#CCCCCC"/>
<path d="M432.218 229.665H339.262C339.192 229.665 339.124 229.638 339.074 229.588C339.024 229.539 338.995 229.471 338.995 229.401C338.994 229.33 339.021 229.262 339.07 229.212C339.12 229.161 339.187 229.132 339.257 229.132H432.218C432.288 229.132 432.355 229.161 432.404 229.211C432.453 229.26 432.481 229.328 432.481 229.398C432.481 229.468 432.453 229.536 432.404 229.586C432.355 229.636 432.288 229.664 432.218 229.665H432.218Z" fill="#CCCCCC"/>
<path d="M432.218 236.063H339.262C339.192 236.064 339.124 236.036 339.074 235.987C339.024 235.937 338.995 235.87 338.995 235.799C338.994 235.729 339.021 235.661 339.07 235.61C339.12 235.56 339.187 235.531 339.257 235.53H432.218C432.288 235.531 432.355 235.559 432.404 235.609C432.453 235.659 432.481 235.727 432.481 235.797C432.481 235.867 432.453 235.935 432.404 235.984C432.355 236.034 432.288 236.063 432.218 236.063H432.218Z" fill="#CCCCCC"/>
<path d="M330.626 71.3871H291.215C290.841 71.3868 290.472 71.473 290.136 71.639L280.189 76.6379C279.862 76.7776 279.583 77.0109 279.386 77.3086C279.19 77.6064 279.086 77.9556 279.086 78.3126C279.086 78.6697 279.19 79.0188 279.386 79.3166C279.583 79.6144 279.862 79.8477 280.189 79.9873L290.136 84.9863C290.472 85.1523 290.841 85.2385 291.215 85.2381H330.626C331.169 85.2697 331.703 85.0852 332.111 84.7246C332.52 84.364 332.77 83.8563 332.809 83.3115V73.3136C332.77 72.7689 332.52 72.2612 332.111 71.9007C331.703 71.5401 331.169 71.3556 330.626 71.3871Z" fill="#3F3D56"/>
<path d="M332.809 73.3137V83.3116C332.77 83.8564 332.52 84.364 332.111 84.7246C331.703 85.0853 331.169 85.2698 330.626 85.2382H322.774V71.3871H330.626C331.169 71.3556 331.703 71.5401 332.111 71.9007C332.52 72.2613 332.77 72.7689 332.809 73.3137Z" fill="#46287B"/>
<path d="M94.344 267.292C99.4187 269.083 104.867 269.532 110.165 268.595C115.462 267.658 120.43 265.368 124.59 261.944C135.184 253.018 138.506 238.312 141.208 224.695C143.873 211.27 146.537 197.845 149.202 184.419L132.466 195.988C120.431 204.307 108.124 212.892 99.7913 224.942C91.4581 236.992 87.8206 253.441 94.5161 266.48" fill="#E6E6E6"/>
<path d="M95.7746 316.055C94.0807 303.669 92.339 291.123 93.5271 278.605C94.5823 267.487 97.9612 256.627 104.84 247.724C108.491 243.007 112.934 238.965 117.969 235.78C119.282 234.949 120.491 237.037 119.183 237.866C110.472 243.393 103.733 251.554 99.9402 261.174C95.7507 271.871 95.0779 283.532 95.7999 294.895C96.2365 301.767 97.1618 308.594 98.0942 315.413C98.1677 315.721 98.1219 316.046 97.9659 316.321C97.81 316.597 97.5556 316.803 97.2542 316.898C96.9466 316.981 96.6188 316.939 96.3418 316.781C96.0648 316.623 95.861 316.362 95.7746 316.055L95.7746 316.055Z" fill="#46287B"/>
<path d="M112.09 294.137C114.266 297.458 117.258 300.16 120.776 301.983C124.295 303.806 128.222 304.689 132.179 304.546C142.349 304.062 150.828 296.936 158.46 290.171L181.034 270.163L166.094 269.445C155.349 268.929 144.328 268.447 134.094 271.774C123.861 275.1 114.423 283.105 112.551 293.738" fill="#E6E6E6"/>
<path d="M90.9875 323.175C99.1404 308.693 108.597 292.598 125.494 287.454C130.193 286.028 135.119 285.518 140.009 285.949C141.55 286.083 141.165 288.467 139.627 288.334C131.431 287.651 123.251 289.824 116.464 294.486C109.933 298.948 104.848 305.153 100.544 311.732C97.9082 315.762 95.5468 319.963 93.1849 324.158C92.4301 325.499 90.2239 324.531 90.9875 323.175L90.9875 323.175Z" fill="#46287B"/>
<path d="M77.9243 338.418C78.199 335.223 79.3418 332.164 81.2283 329.576C83.1147 326.987 85.6725 324.968 88.623 323.738V315.366H102.611V324.002C105.416 325.293 107.831 327.307 109.608 329.839C111.385 332.371 112.461 335.332 112.727 338.418L116.016 376.8H74.6351L77.9243 338.418Z" fill="#46287B"/>
<path d="M553.63 155.149L549.469 153.39L546.614 132.45H508.6L505.506 153.305L501.783 155.173C501.605 155.263 501.463 155.41 501.378 155.591C501.294 155.772 501.273 155.977 501.319 156.171C501.364 156.366 501.474 156.539 501.63 156.663C501.786 156.787 501.98 156.855 502.179 156.855H553.287C553.491 156.855 553.689 156.784 553.847 156.654C554.005 156.524 554.113 156.344 554.153 156.143C554.194 155.942 554.164 155.733 554.068 155.552C553.973 155.371 553.818 155.229 553.63 155.149Z" fill="#E6E6E6"/>
<path d="M621.182 135.236H434.449C433.47 135.234 432.531 134.841 431.839 134.145C431.147 133.449 430.758 132.505 430.758 131.522V105.088H624.874V131.522C624.874 132.505 624.485 133.449 623.793 134.145C623.101 134.841 622.162 135.234 621.182 135.236Z" fill="#CCCCCC"/>
<path d="M625.069 117.581H430.588V4.47695C430.589 3.28998 431.059 2.15202 431.895 1.31272C432.732 0.473426 433.865 0.00132051 435.048 -7.62939e-06H620.609C621.791 0.00132049 622.925 0.473427 623.761 1.31272C624.597 2.15202 625.068 3.28997 625.069 4.47695L625.069 117.581Z" fill="#3F3D56"/>
<path d="M613.453 109.372H442.203C441.292 109.371 440.418 109.007 439.773 108.36C439.129 107.713 438.766 106.836 438.765 105.921V11.6606C438.766 10.7455 439.129 9.86812 439.773 9.22104C440.418 8.57395 441.292 8.20997 442.203 8.20892H613.453C614.365 8.20997 615.239 8.57395 615.883 9.22104C616.528 9.86812 616.89 10.7455 616.891 11.6606V105.921C616.89 106.836 616.528 107.713 615.883 108.36C615.239 109.007 614.365 109.371 613.453 109.372Z" fill="white"/>
<path d="M568.349 142.632C569.454 141.607 570.77 140.837 572.204 140.378C573.638 139.919 575.155 139.78 576.648 139.973C578.141 140.166 579.573 140.685 580.844 141.494C582.116 142.302 583.195 143.381 584.006 144.654L607.17 140.52L613.106 154.038L580.313 159.415C578.092 160.641 575.501 161.007 573.03 160.444C570.559 159.881 568.38 158.427 566.905 156.358C565.43 154.289 564.763 151.749 565.029 149.22C565.295 146.69 566.476 144.346 568.349 142.632Z" fill="#FFB6B6"/>
<path d="M589.794 159.893L613.943 159.59L617 159.549L666.131 158.927C666.131 158.927 679.473 146.15 691.09 132.994L689.462 121.171C687.874 109.567 682.14 98.9385 673.328 91.2622C656.689 102.423 647.039 124.516 647.039 124.516L616.576 131.83L613.529 132.562L594.6 137.102L589.794 159.893Z" fill="#46287B"/>
<path d="M713.414 232.564H668.337C668.337 234.503 619.063 236.076 619.063 236.076C617.976 236.898 616.985 237.841 616.11 238.886C613.48 242.036 612.042 246.016 612.051 250.126V252.936C612.052 257.594 613.896 262.06 617.177 265.353C620.457 268.646 624.906 270.497 629.545 270.499H713.413C718.052 270.495 722.5 268.643 725.78 265.35C729.06 262.058 730.904 257.593 730.908 252.936V250.126C730.902 245.47 729.057 241.007 725.777 237.715C722.498 234.423 718.051 232.57 713.414 232.564Z" fill="#E4E4E4"/>
<path d="M680.634 269.801H662.44V375.228H680.634V269.801Z" fill="#E4E4E4"/>
<path d="M610.655 374.586C610.655 376.56 638.226 375.349 672.237 375.349C706.247 375.349 733.818 376.56 733.818 374.586C733.818 372.612 706.247 356.963 672.237 356.963C638.226 356.963 610.655 372.612 610.655 374.586Z" fill="#E4E4E4"/>
<path d="M598.433 362.54L584.892 362.539L578.45 310.107L598.435 310.108L598.433 362.54Z" fill="#FFB6B6"/>
<path d="M601.886 375.717L558.224 375.715V375.161C558.224 370.636 560.015 366.297 563.202 363.098C566.389 359.898 570.711 358.101 575.218 358.1H575.219L601.887 358.102L601.886 375.717Z" fill="#2F2E41"/>
<path d="M558.411 362.54L544.87 362.539L538.428 310.107L558.413 310.108L558.411 362.54Z" fill="#FFB6B6"/>
<path d="M561.864 375.717L518.202 375.715V375.161C518.202 370.636 519.993 366.297 523.18 363.098C526.367 359.898 530.689 358.101 535.196 358.1H535.198L561.865 358.102L561.864 375.717Z" fill="#2F2E41"/>
<path d="M679.709 60.6813C692.713 60.6813 703.254 50.0994 703.254 37.0459C703.254 23.9924 692.713 13.4105 679.709 13.4105C666.706 13.4105 656.165 23.9924 656.165 37.0459C656.165 50.0994 666.706 60.6813 679.709 60.6813Z" fill="#FFB6B6"/>
<path d="M717.815 198.987C717.815 198.987 725.715 240.921 695.658 246.262C665.6 251.602 622.211 255.355 622.211 255.355L602.727 346.614L576.55 344.268C576.55 344.268 580.031 234.412 588.593 225.818C597.154 217.223 651.267 191.488 651.267 191.488L717.815 198.987Z" fill="#2F2E41"/>
<path d="M659.111 181.412L645.965 194.65C645.965 194.65 551.045 209.999 547.383 232.007C541.855 265.234 535.325 337.489 535.325 337.489L563.863 335.34L575.055 253.206L620.716 242.779L672.667 214.358L659.111 181.412Z" fill="#2F2E41"/>
<path d="M702.366 22.9374C700.041 18.5353 697.088 9.76202 692.397 8.1349C689.792 7.26775 687.1 6.69194 684.369 6.41793L676.395 9.49655L680.735 6.10837C679.89 6.05784 679.045 6.01653 678.201 5.98444L672.822 8.0616L675.574 5.91257C670.558 5.86089 665.381 6.38442 661.495 9.44952C658.182 12.0625 654.899 21.9611 654.368 26.1569C653.801 30.1708 654 34.2564 654.954 38.1958L656.316 39.4963C656.793 38.3993 657.151 37.2542 657.385 36.0807C657.873 33.8879 658.812 31.8214 660.14 30.0128C661.468 28.2041 663.156 26.693 665.098 25.5759L665.173 25.5339C667.458 24.2428 670.23 24.3023 672.851 24.397L685.296 24.8466C688.29 24.9548 691.515 25.145 693.849 27.0304C695.333 28.4213 696.499 30.1178 697.269 32.0035C698.429 34.3537 700.695 43.2181 700.695 43.2181C700.695 43.2181 701.978 41.5449 702.592 42.7903C703.578 39.5409 704.177 36.1859 704.378 32.7952C704.574 29.3894 703.88 25.9913 702.366 22.9374Z" fill="#2F2E41"/>
<path d="M784.713 47.4255C783.211 47.5248 781.749 47.9534 780.43 48.6812C779.111 49.409 777.967 50.4183 777.079 51.638C776.19 52.8577 775.579 54.2581 775.288 55.7405C774.997 57.223 775.034 58.7514 775.395 60.2182L756.462 74.2383L762.143 87.8664L788.603 67.6904C791.017 66.9181 793.066 65.2834 794.36 63.0963C795.654 60.9091 796.104 58.3214 795.624 55.8235C795.145 53.3256 793.769 51.091 791.758 49.5432C789.747 47.9954 787.24 47.2419 784.713 47.4255Z" fill="#FFB6B6"/>
<path d="M781.666 76.0475L734.202 128.965C734.202 128.965 711.504 121.671 693.95 113.763L686.064 89.4475C684.233 83.8067 683.451 77.8757 683.759 71.951C708.094 65.4504 736.398 89.6381 736.398 89.6381L771.927 61.7009L781.666 76.0475Z" fill="#46287B"/>
<path d="M670.915 202.895C662.447 199.959 653.691 196.922 644.246 195.783L643.841 195.733L643.953 195.339C653.73 160.878 651.289 138.834 646.498 105.721C645.479 98.5779 646.789 91.2961 650.231 84.9618C653.673 78.6276 659.063 73.5806 665.597 70.5742L665.655 70.5478L692.63 68.8271L692.691 68.8234L712.309 74.6156C715.131 75.455 717.602 77.2001 719.341 79.5836C721.081 81.967 721.994 84.8573 721.941 87.8116C721.729 98.7016 722.179 110.86 722.657 123.732C723.727 152.61 724.834 182.47 718.552 201.845L718.519 201.946L718.436 202.012C712.661 206.734 705.426 209.285 697.979 209.226C689.173 209.226 680.187 206.11 670.915 202.895Z" fill="#46287B"/>
<path d="M866.746 378H1.25434C0.921668 378 0.602625 377.867 0.367392 377.631C0.132159 377.395 0 377.075 0 376.741C0 376.407 0.132159 376.087 0.367392 375.85C0.602625 375.614 0.921668 375.482 1.25434 375.482H866.746C867.078 375.482 867.397 375.614 867.633 375.85C867.868 376.087 868 376.407 868 376.741C868 377.075 867.868 377.395 867.633 377.631C867.397 377.867 867.078 378 866.746 378Z" fill="#CCCCCC"/>
<path d="M447.82 25.144C447.316 25.144 446.9 25.06 446.572 24.892C446.244 24.724 446 24.504 445.84 24.232C445.68 23.952 445.6 23.648 445.6 23.32C445.6 22.744 445.824 22.288 446.272 21.952C446.72 21.616 447.36 21.448 448.192 21.448H449.752V21.34C449.752 20.876 449.624 20.528 449.368 20.296C449.12 20.064 448.796 19.948 448.396 19.948C448.044 19.948 447.736 20.036 447.472 20.212C447.216 20.38 447.06 20.632 447.004 20.968H445.732C445.772 20.536 445.916 20.168 446.164 19.864C446.42 19.552 446.74 19.316 447.124 19.156C447.516 18.988 447.944 18.904 448.408 18.904C449.24 18.904 449.884 19.124 450.34 19.564C450.796 19.996 451.024 20.588 451.024 21.34V25H449.92L449.812 23.98C449.644 24.308 449.4 24.584 449.08 24.808C448.76 25.032 448.34 25.144 447.82 25.144ZM448.072 24.112C448.416 24.112 448.704 24.032 448.936 23.872C449.176 23.704 449.36 23.484 449.488 23.212C449.624 22.94 449.708 22.64 449.74 22.312H448.324C447.82 22.312 447.46 22.4 447.244 22.576C447.036 22.752 446.932 22.972 446.932 23.236C446.932 23.508 447.032 23.724 447.232 23.884C447.44 24.036 447.72 24.112 448.072 24.112ZM452.507 25V16.36H453.779V25H452.507ZM458.174 25.144C457.59 25.144 457.07 25.016 456.614 24.76C456.166 24.496 455.814 24.132 455.558 23.668C455.302 23.204 455.174 22.664 455.174 22.048C455.174 21.424 455.298 20.876 455.546 20.404C455.802 19.932 456.154 19.564 456.602 19.3C457.058 19.036 457.586 18.904 458.186 18.904C458.77 18.904 459.278 19.036 459.71 19.3C460.142 19.556 460.478 19.9 460.718 20.332C460.958 20.764 461.078 21.24 461.078 21.76C461.078 21.84 461.074 21.928 461.066 22.024C461.066 22.112 461.062 22.212 461.054 22.324H456.422C456.462 22.9 456.65 23.34 456.986 23.644C457.33 23.94 457.726 24.088 458.174 24.088C458.534 24.088 458.834 24.008 459.074 23.848C459.322 23.68 459.506 23.456 459.626 23.176H460.898C460.738 23.736 460.418 24.204 459.938 24.58C459.466 24.956 458.878 25.144 458.174 25.144ZM458.174 19.948C457.75 19.948 457.374 20.076 457.046 20.332C456.718 20.58 456.518 20.956 456.446 21.46H459.806C459.782 20.996 459.618 20.628 459.314 20.356C459.01 20.084 458.63 19.948 458.174 19.948ZM462.398 25V19.048H463.538L463.646 20.176C463.854 19.784 464.142 19.476 464.51 19.252C464.886 19.02 465.338 18.904 465.866 18.904V20.236H465.518C465.166 20.236 464.85 20.296 464.57 20.416C464.298 20.528 464.078 20.724 463.91 21.004C463.75 21.276 463.67 21.656 463.67 22.144V25H462.398ZM469.452 25C468.868 25 468.404 24.86 468.06 24.58C467.716 24.292 467.544 23.784 467.544 23.056V20.116H466.524V19.048H467.544L467.7 17.536H468.816V19.048H470.496V20.116H468.816V23.056C468.816 23.384 468.884 23.612 469.02 23.74C469.164 23.86 469.408 23.92 469.752 23.92H470.436V25H469.452ZM476.955 26.74C476.507 26.308 476.103 25.8 475.743 25.216C475.391 24.64 475.107 24 474.891 23.296C474.683 22.584 474.579 21.82 474.579 21.004C474.579 20.188 474.683 19.428 474.891 18.724C475.107 18.012 475.391 17.368 475.743 16.792C476.103 16.208 476.507 15.7 476.955 15.268H478.227V15.388C477.507 16.132 476.927 16.984 476.487 17.944C476.055 18.904 475.839 19.924 475.839 21.004C475.839 22.084 476.055 23.104 476.487 24.064C476.927 25.024 477.511 25.876 478.239 26.62V26.74H476.955ZM482.052 19.42L483.204 16.6H484.092L483.42 19.42H482.052ZM485.391 25V16.6H486.663V20.2H490.731V16.6H492.003V25H490.731V21.244H486.663V25H485.391ZM496.447 25.144C495.863 25.144 495.343 25.016 494.887 24.76C494.439 24.496 494.087 24.132 493.831 23.668C493.575 23.204 493.447 22.664 493.447 22.048C493.447 21.424 493.571 20.876 493.819 20.404C494.075 19.932 494.427 19.564 494.875 19.3C495.331 19.036 495.859 18.904 496.459 18.904C497.043 18.904 497.551 19.036 497.983 19.3C498.415 19.556 498.751 19.9 498.991 20.332C499.231 20.764 499.351 21.24 499.351 21.76C499.351 21.84 499.347 21.928 499.339 22.024C499.339 22.112 499.335 22.212 499.327 22.324H494.695C494.735 22.9 494.923 23.34 495.259 23.644C495.603 23.94 495.999 24.088 496.447 24.088C496.807 24.088 497.107 24.008 497.347 23.848C497.595 23.68 497.779 23.456 497.899 23.176H499.171C499.011 23.736 498.691 24.204 498.211 24.58C497.739 24.956 497.151 25.144 496.447 25.144ZM496.447 19.948C496.023 19.948 495.647 20.076 495.319 20.332C494.991 20.58 494.791 20.956 494.719 21.46H498.079C498.055 20.996 497.891 20.628 497.587 20.356C497.283 20.084 496.903 19.948 496.447 19.948ZM500.671 25V16.36H501.943V25H500.671ZM503.554 25V16.36H504.826V25H503.554ZM509.221 25.144C508.653 25.144 508.141 25.016 507.685 24.76C507.237 24.496 506.881 24.132 506.617 23.668C506.353 23.196 506.221 22.648 506.221 22.024C506.221 21.4 506.353 20.856 506.617 20.392C506.889 19.92 507.253 19.556 507.709 19.3C508.165 19.036 508.673 18.904 509.233 18.904C509.801 18.904 510.309 19.036 510.757 19.3C511.213 19.556 511.573 19.92 511.837 20.392C512.109 20.856 512.245 21.4 512.245 22.024C512.245 22.648 512.109 23.196 511.837 23.668C511.573 24.132 511.213 24.496 510.757 24.76C510.301 25.016 509.789 25.144 509.221 25.144ZM509.221 24.052C509.525 24.052 509.805 23.976 510.061 23.824C510.325 23.672 510.537 23.448 510.697 23.152C510.857 22.848 510.937 22.472 510.937 22.024C510.937 21.576 510.857 21.204 510.697 20.908C510.545 20.604 510.337 20.376 510.073 20.224C509.817 20.072 509.537 19.996 509.233 19.996C508.929 19.996 508.645 20.072 508.381 20.224C508.125 20.376 507.917 20.604 507.757 20.908C507.597 21.204 507.517 21.576 507.517 22.024C507.517 22.472 507.597 22.848 507.757 23.152C507.917 23.448 508.125 23.672 508.381 23.824C508.637 23.976 508.917 24.052 509.221 24.052ZM518.408 25.012L516.14 16.6H517.508L519.176 23.56L521.096 16.6H522.5L524.36 23.56L526.028 16.6H527.396L525.092 25H523.604L521.768 18.412L519.872 25L518.408 25.012ZM530.678 25.144C530.11 25.144 529.598 25.016 529.142 24.76C528.694 24.496 528.338 24.132 528.074 23.668C527.81 23.196 527.678 22.648 527.678 22.024C527.678 21.4 527.81 20.856 528.074 20.392C528.346 19.92 528.71 19.556 529.166 19.3C529.622 19.036 530.13 18.904 530.69 18.904C531.258 18.904 531.766 19.036 532.214 19.3C532.67 19.556 533.03 19.92 533.294 20.392C533.566 20.856 533.702 21.4 533.702 22.024C533.702 22.648 533.566 23.196 533.294 23.668C533.03 24.132 532.67 24.496 532.214 24.76C531.758 25.016 531.246 25.144 530.678 25.144ZM530.678 24.052C530.982 24.052 531.262 23.976 531.518 23.824C531.782 23.672 531.994 23.448 532.154 23.152C532.314 22.848 532.394 22.472 532.394 22.024C532.394 21.576 532.314 21.204 532.154 20.908C532.002 20.604 531.794 20.376 531.53 20.224C531.274 20.072 530.994 19.996 530.69 19.996C530.386 19.996 530.102 20.072 529.838 20.224C529.582 20.376 529.374 20.604 529.214 20.908C529.054 21.204 528.974 21.576 528.974 22.024C528.974 22.472 529.054 22.848 529.214 23.152C529.374 23.448 529.582 23.672 529.838 23.824C530.094 23.976 530.374 24.052 530.678 24.052ZM535.077 25V19.048H536.217L536.325 20.176C536.533 19.784 536.821 19.476 537.189 19.252C537.565 19.02 538.017 18.904 538.545 18.904V20.236H538.197C537.845 20.236 537.529 20.296 537.249 20.416C536.977 20.528 536.757 20.724 536.589 21.004C536.429 21.276 536.349 21.656 536.349 22.144V25H535.077ZM539.636 25V16.36H540.908V25H539.636ZM545.231 25.144C544.655 25.144 544.147 25.008 543.707 24.736C543.267 24.464 542.923 24.092 542.675 23.62C542.427 23.148 542.303 22.612 542.303 22.012C542.303 21.412 542.427 20.88 542.675 20.416C542.923 19.944 543.267 19.576 543.707 19.312C544.155 19.04 544.667 18.904 545.243 18.904C545.715 18.904 546.127 18.996 546.479 19.18C546.839 19.364 547.119 19.624 547.319 19.96V16.36H548.591V25H547.451L547.319 24.076C547.127 24.356 546.863 24.604 546.527 24.82C546.191 25.036 545.759 25.144 545.231 25.144ZM545.459 24.04C546.003 24.04 546.447 23.852 546.791 23.476C547.143 23.1 547.319 22.616 547.319 22.024C547.319 21.424 547.143 20.94 546.791 20.572C546.447 20.196 546.003 20.008 545.459 20.008C544.915 20.008 544.467 20.196 544.115 20.572C543.763 20.94 543.587 21.424 543.587 22.024C543.587 22.416 543.667 22.764 543.827 23.068C543.987 23.372 544.207 23.612 544.487 23.788C544.775 23.956 545.099 24.04 545.459 24.04ZM550.459 22.516L550.315 16.6H551.683L551.539 22.516H550.459ZM551.035 25.072C550.787 25.072 550.583 24.996 550.423 24.844C550.271 24.684 550.195 24.496 550.195 24.28C550.195 24.056 550.271 23.868 550.423 23.716C550.583 23.556 550.787 23.476 551.035 23.476C551.267 23.476 551.459 23.556 551.611 23.716C551.771 23.868 551.851 24.056 551.851 24.28C551.851 24.496 551.771 24.684 551.611 24.844C551.459 24.996 551.267 25.072 551.035 25.072ZM553.728 22.516L553.584 16.6H554.952L554.808 22.516H553.728ZM554.304 25.072C554.056 25.072 553.852 24.996 553.692 24.844C553.54 24.684 553.464 24.496 553.464 24.28C553.464 24.056 553.54 23.868 553.692 23.716C553.852 23.556 554.056 23.476 554.304 23.476C554.536 23.476 554.728 23.556 554.88 23.716C555.04 23.868 555.12 24.056 555.12 24.28C555.12 24.496 555.04 24.684 554.88 24.844C554.728 24.996 554.536 25.072 554.304 25.072ZM556.374 19.42L557.046 16.6H558.426L557.262 19.42H556.374ZM562.244 26.74V26.62C562.964 25.876 563.544 25.024 563.984 24.064C564.424 23.104 564.644 22.084 564.644 21.004C564.644 19.924 564.424 18.904 563.984 17.944C563.552 16.984 562.976 16.132 562.256 15.388V15.268H563.528C563.968 15.7 564.368 16.208 564.728 16.792C565.088 17.368 565.372 18.012 565.58 18.724C565.796 19.428 565.904 20.188 565.904 21.004C565.904 21.82 565.796 22.584 565.58 23.296C565.372 24 565.088 24.64 564.728 25.216C564.368 25.8 563.968 26.308 563.528 26.74H562.244Z" fill="#46287B"/>
</g>
<defs>
<clipPath id="clip0_2_446">
<rect width="868" height="378" fill="white"/>
</clipPath>
</defs>
</svg>
